<svg width="553" height="199" viewBox="0 0 553 199" fill="none" xmlns="http://www.w3.org/2000/svg">
<g clip-path="url(#clip0_251_3730)">
<path d="M275.36 61.37L301.65 59.72C302.223 63.9934 303.383 67.2467 305.13 69.48C307.983 73.1 312.05 74.91 317.33 74.91C321.27 74.91 324.31 73.9867 326.45 72.14C327.43 71.3733 328.226 70.397 328.78 69.2826C329.333 68.1683 329.631 66.9442 329.65 65.7C329.634 64.5072 329.357 63.3324 328.839 62.2579C328.32 61.1834 327.573 60.2353 326.65 59.48C324.65 57.6534 319.933 55.9234 312.5 54.29C300.38 51.57 291.737 47.95 286.57 43.43C284.056 41.3241 282.048 38.6789 280.696 35.6909C279.344 32.7029 278.682 29.4488 278.76 26.17C278.779 21.5366 280.171 17.0128 282.76 13.17C285.717 8.83894 289.893 5.48372 294.76 3.53002C300.093 1.19002 307.427 0.0200195 316.76 0.0200195C328.187 0.0200195 336.9 2.14669 342.9 6.40002C348.9 10.6534 352.47 17.4134 353.61 26.68L327.56 28.2C326.893 24.2 325.44 21.2734 323.2 19.42C320.96 17.5667 317.893 16.6434 314 16.65C310.79 16.65 308.37 17.34 306.75 18.7C305.985 19.2884 305.366 20.0461 304.943 20.9135C304.52 21.781 304.303 22.7348 304.31 23.7C304.334 24.4491 304.527 25.183 304.873 25.8477C305.219 26.5124 305.71 27.0908 306.31 27.54C307.61 28.72 310.7 29.82 315.58 30.84C327.66 33.44 336.327 36.0734 341.58 38.74C346.833 41.4067 350.633 44.71 352.98 48.65C355.375 52.6469 356.611 57.231 356.55 61.89C356.579 67.5314 354.925 73.0532 351.8 77.75C348.547 82.6472 343.92 86.474 338.5 88.75C332.8 91.25 325.62 92.5 316.96 92.5C301.753 92.5 291.22 89.5734 285.36 83.72C279.5 77.8667 276.167 70.4167 275.36 61.37V61.37ZM6.27 91V1.53002H52.33C60.87 1.53002 67.3967 2.26002 71.91 3.72002C76.3557 5.13999 80.1993 8.00509 82.83 11.86C85.6932 16.1387 87.1509 21.2039 87 26.35C87.116 30.8409 86.0099 35.2788 83.8 39.19C81.6793 42.8158 78.6762 45.8464 75.07 48C72.0382 49.6723 68.7663 50.8664 65.37 51.54C67.9112 52.2884 70.3324 53.3963 72.56 54.83C74.2155 56.2061 75.7055 57.77 77 59.49C78.4564 61.1995 79.7456 63.0446 80.85 65L94.23 91H63L48.24 63.63C46.3667 60.09 44.7 57.79 43.24 56.73C41.2505 55.3513 38.8803 54.6276 36.46 54.66H34V91H6.27ZM34 37.76H45.68C48.1519 37.5755 50.6019 37.1671 53 36.54C54.792 36.1962 56.3903 35.1937 57.48 33.73C58.6323 32.2515 59.2461 30.4243 59.22 28.55C59.2952 27.3057 59.0867 26.0605 58.6103 24.9085C58.134 23.7565 57.4021 22.7278 56.47 21.9C54.6433 20.3534 51.2067 19.58 46.16 19.58H34V37.76ZM0 167.56L26.29 165.92C26.8633 170.193 28.0233 173.447 29.77 175.68C32.59 179.3 36.6667 181.11 42 181.11C45.94 181.11 48.98 180.183 51.12 178.33C52.1 177.563 52.8961 176.587 53.4498 175.473C54.0035 174.358 54.3008 173.134 54.32 171.89C54.3024 170.697 54.0248 169.523 53.5067 168.449C52.9886 167.375 52.2423 166.426 51.32 165.67C49.32 163.843 44.6033 162.117 37.17 160.49C25.05 157.757 16.4067 154.137 11.24 149.63C8.72612 147.522 6.71886 144.875 5.36691 141.885C4.01496 138.896 3.35297 135.64 3.43 132.36C3.45213 127.727 4.84382 123.204 7.43 119.36C10.3868 115.029 14.5634 111.674 19.43 109.72C24.7633 107.38 32.0967 106.21 41.43 106.21C52.8567 106.21 61.57 108.337 67.57 112.59C73.57 116.843 77.14 123.603 78.28 132.87L52.28 134.4C51.6133 130.4 50.16 127.47 47.92 125.61C45.68 123.75 42.6167 122.837 38.73 122.87C35.5233 122.87 33.1067 123.537 31.48 124.87C30.7148 125.458 30.0963 126.216 29.673 127.084C29.2496 127.951 29.033 128.905 29.04 129.87C29.0628 130.621 29.2544 131.357 29.6007 132.023C29.9469 132.69 30.4389 133.27 31.04 133.72C32.34 134.9 35.43 135.997 40.31 137.01C52.39 139.61 61.0567 142.243 66.31 144.91C71.5633 147.577 75.3633 150.88 77.71 154.82C80.1034 158.817 81.3394 163.401 81.28 168.06C81.31 173.702 79.6561 179.224 76.53 183.92C73.2775 188.817 68.6504 192.644 63.23 194.92C57.53 197.42 50.35 198.67 41.69 198.67C26.4833 198.67 15.95 195.743 10.09 189.89C4.23 184.037 0.866667 176.593 0 167.56ZM163 160.55L187.22 167.87C185.88 174.014 183.26 179.807 179.53 184.87C176.131 189.344 171.66 192.889 166.53 195.18C161.343 197.493 154.743 198.65 146.73 198.65C137.01 198.65 129.07 197.24 122.91 194.42C116.75 191.6 111.417 186.63 106.91 179.51C102.43 172.397 100.193 163.293 100.2 152.2C100.2 137.413 104.133 126.043 112 118.09C119.867 110.137 131 106.163 145.4 106.17C156.673 106.17 165.53 108.45 171.97 113.01C178.41 117.57 183.197 124.57 186.33 134.01L161.93 139.44C161.357 137.312 160.453 135.287 159.25 133.44C157.772 131.388 155.829 129.716 153.58 128.56C151.249 127.399 148.674 126.812 146.07 126.85C139.81 126.85 135.013 129.37 131.68 134.41C129.147 138.15 127.883 144.02 127.89 152.02C127.89 161.927 129.397 168.72 132.41 172.4C135.423 176.08 139.653 177.917 145.1 177.91C150.38 177.91 154.38 176.427 157.1 173.46C159.82 170.493 161.787 166.19 163 160.55V160.55ZM208.51 107.72H236.14V139H266.34V107.72H294.09V197.15H266.34V161H236.14V197.18H208.51V107.72ZM311.29 152.49C311.29 137.903 315.357 126.537 323.49 118.39C331.623 110.243 342.957 106.177 357.49 106.19C372.37 106.19 383.837 110.19 391.89 118.19C399.943 126.19 403.98 137.38 404 151.76C404 162.22 402.24 170.793 398.72 177.48C395.295 184.079 389.987 189.512 383.47 193.09C376.803 196.81 368.517 198.67 358.61 198.67C348.53 198.67 340.197 197.063 333.61 193.85C326.843 190.496 321.243 185.182 317.54 178.6C313.367 171.653 311.283 162.95 311.29 152.49V152.49ZM338.92 152.62C338.92 161.653 340.587 168.14 343.92 172.08C347.253 176.02 351.82 177.99 357.62 177.99C363.56 177.99 368.157 176.06 371.41 172.2C374.663 168.34 376.29 161.407 376.29 151.4C376.29 142.98 374.59 136.827 371.19 132.94C367.79 129.053 363.183 127.113 357.37 127.12C354.842 127.029 352.327 127.511 350.012 128.529C347.696 129.547 345.641 131.076 344 133C340.62 137 338.927 143.54 338.92 152.62V152.62Z" fill="white"/>
<path d="M392.28 152.49C392.28 137.903 396.346 126.537 404.48 118.39C412.613 110.243 423.946 106.177 438.48 106.19C453.373 106.19 464.843 110.19 472.89 118.19C480.936 126.19 484.96 137.383 484.96 151.77C484.96 162.23 483.203 170.803 479.69 177.49C476.261 184.086 470.955 189.519 464.44 193.1C457.773 196.82 449.486 198.68 439.58 198.68C429.493 198.68 421.16 197.073 414.58 193.86C407.812 190.504 402.209 185.191 398.5 178.61C394.353 171.657 392.28 162.95 392.28 152.49V152.49ZM419.92 152.62C419.92 161.653 421.586 168.14 424.92 172.08C428.253 176.02 432.826 177.993 438.64 178C444.58 178 449.176 176.07 452.43 172.21C455.683 168.35 457.31 161.417 457.31 151.41C457.31 142.99 455.613 136.837 452.22 132.95C448.826 129.063 444.22 127.123 438.4 127.13C435.868 127.033 433.347 127.51 431.026 128.527C428.705 129.543 426.645 131.073 425 133C421.606 137 419.913 143.54 419.92 152.62V152.62Z" fill="white"/>
<path d="M482.08 107.72H509.72V175.13H552.85V197.13H482.08V107.72Z" fill="white"/>
</g>
<defs>
<clipPath id="clip0_251_3730">
<rect width="552.85" height="198.67" fill="white"/>
</clipPath>
</defs>
</svg>
